# xmcd
#
# Track frame offsets:
#	150
#	72310
#	108802
#	171730
#	197937
#
# Disc length: 3129 seconds
#
# Revision: 1
# Processed by: cddbd v1.5.1PL0 Copyright (c) Steve Scherf et al.
# Submitted via: CDex 1.50Beta5
#
DISCID=480c3705
DTITLE=武満徹 - 武満徹オーケストラ作品集5
DYEAR=1999
DGENRE=Classical
TTITLE0=Spectral Canticle for violin,guitar&orchestra
TTITLE1=Star-Isle for orchestra
TTITLE2=Dreamtime for orchestra
TTITLE3=Green
TTITLE4=Music of Tree
EXTD=
EXTT0=
EXTT1=
EXTT2=
EXTT3=
EXTT4=
PLAYORDER=
